<svg xmlns="http://www.w3.org/2000/svg" width="21" height="21">
    <path fill="#272727" fill-rule="evenodd" d="M13.78.092L.095 13.778a.365.365 0 0 0 .001.518l6.581 6.581a.367.367 0 0 0 .519.002L20.881 7.193a.366.366 0 0 0-.001-.519L14.299.093a.367.367 0 0 0-.519-.001zm6.323 6.84l-1.559 1.559-2.046-2.045a.245.245 0 0 0-.345-.001.246.246 0 0 0 0 .346l2.046 2.046-1.687 1.687-3.691-3.691a.491.491 0 0 0-.692-.001.49.49 0 0 0 .001.691l3.691 3.691-2.009 2.01-1.902-1.902a.244.244 0 1 0-.345.345l1.902 1.902-1.674 1.673-3.691-3.691a.488.488 0 1 0-.69.69l3.691 3.691-2.012 2.012-1.901-1.902a.244.244 0 1 0-.345.345l1.901 1.902L6.935 20.1.873 14.038 14.041.87l6.062 6.062z"/>
</svg>
